<svg xmlns="http://www.w3.org/2000/svg"  viewBox="0 0 100 100" width="100px" height="100px"><polygon fill="#e85654" points="62.687,61 74.558,81.528 82.957,70.742 86.408,61"/><polygon fill="#ead032" points="61.851,18.469 50,39.632 62.687,61 86.013,61 85.223,57.809 79.128,44.723 64.973,21.777"/><polygon fill="#40a6dd" points="37.313,61 25.87,80.854 30.57,82.992 74.558,82.264 62.687,61"/><polygon fill="#3a83c1" points="13.926,61 17.149,71.468 25.444,81.53 37.313,61"/><polygon fill="#8cc78c" points="38.147,18.469 27.754,33.531 15.319,55.277 13.595,60.785 37.313,61 50,39.632"/><path fill="#70b570" d="M39.173,19.718l10.835,19.125L60.65,19.705c0.673-1.209-0.202-2.696-1.586-2.696H40.751 C39.361,17.009,38.488,18.508,39.173,19.718z"/><path fill="#1f212b" d="M87.407,60.986c-0.004-2.096-0.562-4.167-1.614-5.99L66.745,22.004	c-1.055-1.826-2.573-3.348-4.394-4.4c-0.004-0.002-0.008-0.002-0.012-0.004C60.546,16.554,58.472,16,56.343,16l-13.501,0.021	c-1.838,0.116-3.589,0.648-5.203,1.58c-0.015,0.009-0.023,0.023-0.037,0.033c-1.796,1.05-3.299,2.557-4.347,4.369L14.207,54.994	c-1.052,1.821-1.609,3.892-1.614,5.991c0,0.005-0.003,0.01-0.003,0.015c0,2.102,0.561,4.177,1.619,6l6.768,11.704	c1.038,1.527,2.373,2.768,3.966,3.689c0.001,0.001,0.002,0.002,0.003,0.002c0.001,0.001,0.002,0.001,0.003,0.002	c0.001,0.001,0.002,0.002,0.003,0.002c0.002,0.001,0.005,0.002,0.007,0.003C26.778,83.447,28.85,84,30.952,84h38.096	c2.104,0,4.173-0.553,5.987-1.595c0.004-0.002,0.009-0.003,0.013-0.005c0.002-0.001,0.004-0.003,0.006-0.004	c0.001-0.001,0.002-0.001,0.003-0.002c0.001-0.001,0.001-0.002,0.002-0.002c1.592-0.921,2.926-2.161,4.003-3.75l6.728-11.64	c1.06-1.825,1.62-3.9,1.62-6.002C87.41,60.995,87.407,60.991,87.407,60.986z M65.013,23.004l19.048,32.992	c0.796,1.377,1.232,2.927,1.314,4.504H62.963L50.589,39.603l0.496-0.886l0.002-0.003c0,0,0,0,0,0l10.686-19.096	C63.098,20.478,64.219,21.629,65.013,23.004z M61.799,60.5H38.2l11.794-19.938L61.799,60.5z M42.906,18.019L56.344,18	c1.612,0,3.174,0.396,4.564,1.116l-10.68,19.087c0,0.001-0.001,0.001-0.002,0.002l-0.232,0.392l-0.001-0.002L39.074,19.113	C40.297,18.482,41.596,18.103,42.906,18.019z M15.939,55.994l19.048-32.992c0.793-1.372,1.91-2.521,3.227-3.377l10.912,19.471	c0,0,0,0.001,0.001,0.002l0.006,0.011l0.271,0.484L37.037,60.5h-0.196H14.625C14.707,58.92,15.144,57.37,15.939,55.994z M22.67,77.642L15.94,65.998c-0.799-1.376-1.237-2.922-1.317-4.498h21.824L25.533,80.394C24.387,79.657,23.409,78.726,22.67,77.642z M30.952,82c-1.587,0-3.143-0.396-4.55-1.112L37.376,61.89c0.001-0.001,0.002-0.001,0.003-0.003l0.229-0.388h24.783l0.23,0.388	c0.001,0.001,0.002,0.001,0.003,0.003l10.974,18.997C72.194,81.605,70.637,82,69.048,82H30.952z M84.059,66l-6.689,11.579	c-0.774,1.14-1.756,2.077-2.903,2.814L63.553,61.5h21.824C85.297,63.076,84.859,64.622,84.059,66z"/></svg>